HIERARCHY
ROOT SpineBase
{
  OFFSET 0.000000 0.000000 0.000000
  CHANNELS 6 Xposition Yposition Zposition Zrotation Xrotation Yrotation
  JOINT SpineMid
  {
    OFFSET -0.000000 28.902503 0.000000
    CHANNELS 3 Zrotation Xrotation Yrotation
    JOINT SpineShoulder
    {
      OFFSET 0.019758 21.566639 -0.829319
      CHANNELS 3 Zrotation Xrotation Yrotation
      JOINT Neck
      {
        OFFSET -0.016806 7.184483 -0.606108
        CHANNELS 3 Zrotation Xrotation Yrotation
        JOINT Head
        {
          OFFSET 0.061877 13.284375 -4.298382
          CHANNELS 3 Zrotation Xrotation Yrotation
          End Site
          {
            OFFSET 0 0 0
          }
        }
      }
      JOINT ShoulderLeft
      {
        OFFSET -16.468173 -2.231291 -0.278156
        CHANNELS 3 Zrotation Xrotation Yrotation
        JOINT ElbowLeft
        {
          OFFSET -3.707650 -23.010664 -0.944705
          CHANNELS 3 Zrotation Xrotation Yrotation
          JOINT WristLeft
          {
            OFFSET 0.173967 -20.663338 -5.722222
            CHANNELS 3 Zrotation Xrotation Yrotation
            JOINT HandLeft
            {
              OFFSET 0.379894 -5.173558 -1.824256
              CHANNELS 3 Zrotation Xrotation Yrotation
              JOINT HandTipLeft
              {
                OFFSET 0.894969 -7.030372 -0.823836
                CHANNELS 3 Zrotation Xrotation Yrotation
                End Site
                {
                  OFFSET 0 0 0
                }
              }
              JOINT ThumbLeft
              {
                OFFSET 3.930649 0.907841 0.487247
                CHANNELS 3 Zrotation Xrotation Yrotation
                End Site
                {
                  OFFSET 0 0 0
                }
              }
            }
          }
        }
      }
      JOINT ShoulderRight
      {
        OFFSET 14.091315 -0.756051 -2.336728
        CHANNELS 3 Zrotation Xrotation Yrotation
        JOINT ElbowRight
        {
          OFFSET -0.698040 -23.324535 -1.902356
          CHANNELS 3 Zrotation Xrotation Yrotation
          JOINT WristRight
          {
            OFFSET 0.011262 -22.475808 -7.280367
            CHANNELS 3 Zrotation Xrotation Yrotation
            JOINT HandRight
            {
              OFFSET 3.493938 -3.978350 1.533518
              CHANNELS 3 Zrotation Xrotation Yrotation
              JOINT HandTipRight
              {
                OFFSET 2.111924 -3.559476 -2.809155
                CHANNELS 3 Zrotation Xrotation Yrotation
                End Site
                {
                  OFFSET 0 0 0
                }
              }
              JOINT ThumbRight
              {
                OFFSET 3.346026 0.157099 -5.768596
                CHANNELS 3 Zrotation Xrotation Yrotation
                End Site
                {
                  OFFSET 0 0 0
                }
              }
            }
          }
        }
      }
    }
  }
  JOINT HipLeft
  {
    OFFSET -7.362899 1.089232 -2.711964
    CHANNELS 3 Zrotation Xrotation Yrotation
    JOINT KneeLeft
    {
      OFFSET -1.542491 -27.001522 1.305436
      CHANNELS 3 Zrotation Xrotation Yrotation
      JOINT AnkleLeft
      {
        OFFSET 0.896082 -35.434662 10.765327
        CHANNELS 3 Zrotation Xrotation Yrotation
        JOINT FootLeft
        {
          OFFSET -0.350602 -5.051071 -8.410664
          CHANNELS 3 Zrotation Xrotation Yrotation
          End Site
          {
            OFFSET 0 0 0
          }
        }
      }
    }
  }
  JOINT HipRight
  {
    OFFSET 7.259361 1.315622 -3.791940
    CHANNELS 3 Zrotation Xrotation Yrotation
    JOINT KneeRight
    {
      OFFSET 1.562125 -26.812868 1.619425
      CHANNELS 3 Zrotation Xrotation Yrotation
      JOINT AnkleRight
      {
        OFFSET -1.145076 -34.506868 9.397878
        CHANNELS 3 Zrotation Xrotation Yrotation
        JOINT FootRight
        {
          OFFSET -0.884156 -3.122402 -12.291338
          CHANNELS 3 Zrotation Xrotation Yrotation
          End Site
          {
            OFFSET 0 0 0
          }
        }
      }
    }
  }
}
MOTION
Frames: 16
Frame Time: 0.033333
11.503099 70.226340 301.406159 2.496286 -2.731867 3.167364 0.029122 0.079402 -3.010954 -0.187922 0.113195 0.093218 -17.579750 5.770354 -4.028486 0.000000 0.000000 0.000000 -7.959022 6.463001 -0.093854 22.017051 6.694624 -4.211799 6.319644 -3.714592 -1.570543 -8.394579 1.075716 5.945203 0.000000 0.000000 0.000000 0.000000 0.000000 0.000000 -5.293162 4.979808 0.224860 2.959214 -2.438738 -0.105676 -22.660854 -1.137168 -12.127314 8.911352 -26.981446 3.262789 0.000000 0.000000 0.000000 0.000000 0.000000 0.000000 -4.306749 38.192752 -4.610737 0.018410 -24.193065 0.179980 4.794466 -15.608525 1.905206 0.000000 0.000000 0.000000 -8.453960 -0.218453 -3.465798 3.818210 -7.926294 0.089676 4.431325 10.516163 -9.312696 0.000000 0.000000 0.000000
11.492920 69.468203 298.651996 2.672287 -3.748969 2.505583 0.100080 -0.023734 -2.311065 -0.143102 0.163970 0.103732 -17.852315 7.654828 -3.620454 0.000000 0.000000 0.000000 -7.667879 6.989829 0.001045 22.224222 7.238522 -4.710325 6.062848 -7.038559 -1.070909 -7.693096 2.761875 6.011700 0.000000 0.000000 0.000000 0.000000 0.000000 0.000000 -6.079221 6.095937 0.369859 3.443376 -2.492552 -0.131739 -25.509340 -11.721812 -26.844305 11.828164 -14.709253 16.489900 0.000000 0.000000 0.000000 0.000000 0.000000 0.000000 -4.472420 39.133073 -3.839231 -0.926731 -15.911236 0.269735 6.788903 -16.640544 -0.513656 0.000000 0.000000 0.000000 -8.184908 -0.383237 -2.754181 2.748822 -9.394328 -0.032234 5.244964 12.720964 -10.160736 0.000000 0.000000 0.000000
11.456897 68.603636 295.677019 2.881594 -4.949778 2.101151 0.130347 0.213419 -1.868088 -0.127183 0.283297 0.109769 -17.779080 9.415058 -3.196439 0.000000 0.000000 0.000000 -7.450081 7.527114 0.054129 23.043439 6.488227 -5.108156 3.583305 -8.806303 -0.472778 -8.186370 3.674334 5.866909 0.000000 0.000000 0.000000 0.000000 0.000000 0.000000 -6.187609 6.931992 0.406555 3.305366 -2.483340 -0.123994 -25.307250 -15.486190 -30.913356 9.962398 -12.467705 20.293706 0.000000 0.000000 0.000000 0.000000 0.000000 0.000000 -4.349068 40.900710 -3.455474 -1.632441 -11.167556 0.377412 8.616845 -19.035690 -2.261378 0.000000 0.000000 0.000000 -7.950925 -0.368005 -2.274249 1.840555 -10.527206 -0.100899 5.835445 14.615486 -10.700746 0.000000 0.000000 0.000000
11.264049 68.023565 292.171278 3.145051 -5.411217 1.519327 0.155383 0.245407 -1.253912 -0.097874 0.157403 0.125528 -17.092002 9.732139 -2.871840 0.000000 0.000000 0.000000 -7.411227 7.838599 0.076490 23.523884 5.862722 -5.358736 0.902358 -10.616343 0.177578 -5.661931 7.063940 5.123928 0.000000 0.000000 0.000000 0.000000 0.000000 0.000000 -6.206382 7.391294 0.385071 3.008379 -2.382189 -0.111832 -23.048849 -13.155298 -26.450438 7.617595 -18.603327 16.421372 0.000000 0.000000 0.000000 0.000000 0.000000 0.000000 -4.589554 41.041476 -2.803579 -2.048090 -8.297265 0.454574 9.796193 -19.223128 -3.571099 0.000000 0.000000 0.000000 -8.040275 -1.433206 -1.752290 1.637663 -11.219690 0.003618 5.858092 16.632140 -10.678879 0.000000 0.000000 0.000000
10.985718 67.740365 288.711369 3.467844 -6.123267 0.724644 0.159728 0.386808 -0.415696 -0.077341 0.233865 0.137029 -17.040159 10.921434 -2.590319 0.000000 0.000000 0.000000 -7.234044 7.774731 0.103804 23.072450 5.754485 -5.562117 -1.262509 -11.277586 0.588548 -5.319996 7.787338 4.711423 0.000000 0.000000 0.000000 0.000000 0.000000 0.000000 -5.392625 7.795912 0.186369 1.860963 -2.279297 -0.046646 -19.637365 -6.085888 -16.069626 2.702502 -30.165675 4.376212 0.000000 0.000000 0.000000 0.000000 0.000000 0.000000 -5.403468 41.291352 -1.708798 -1.837402 -8.062637 0.679837 9.984322 -15.220186 -4.939342 0.000000 0.000000 0.000000 -8.200769 -2.032799 -0.948277 1.792657 -11.768998 0.182490 5.607459 18.176250 -10.745407 0.000000 0.000000 0.000000
10.702244 67.691404 285.406750 3.728952 -6.603596 1.424748 0.208111 0.147335 -1.070102 -0.041678 0.439656 0.142941 -16.948224 11.610000 -2.362036 0.000000 0.000000 0.000000 -7.023485 8.248133 0.057536 22.295963 5.175921 -5.410511 -1.039521 -11.926860 0.574345 -8.520606 8.052189 5.414850 0.000000 0.000000 0.000000 0.000000 0.000000 0.000000 -3.947238 8.387555 -0.159949 0.214953 -3.189425 0.031889 -16.710884 0.705645 -7.195118 -6.362983 -38.599327 -7.475314 0.000000 0.000000 0.000000 0.000000 0.000000 0.000000 -4.991647 41.876039 -2.587509 -1.402115 -9.751137 0.904846 10.068420 -13.238655 -6.167608 0.000000 0.000000 0.000000 -8.445010 -3.239588 -1.719707 2.120317 -11.416446 0.420359 5.302720 19.433232 -10.945544 0.000000 0.000000 0.000000
10.391903 68.018596 282.122027 3.945326 -7.088243 0.963331 0.208383 -0.079638 -0.563606 -0.035252 0.450826 0.149614 -17.097627 13.219931 -2.060936 0.000000 0.000000 0.000000 -7.268588 9.226775 0.082959 21.595019 4.044021 -4.933477 1.022299 -11.550138 0.076356 -7.822102 8.897058 5.510935 0.000000 0.000000 0.000000 0.000000 0.000000 0.000000 -2.676640 9.015179 -0.461792 -1.063371 -3.591153 0.068562 -16.948129 8.449243 1.630277 -15.935902 -46.494068 -24.638006 0.000000 0.000000 0.000000 0.000000 0.000000 0.000000 -5.793945 41.403214 -1.783291 -0.727870 -11.923113 1.142499 9.240257 -10.618783 -6.626266 0.000000 0.000000 0.000000 -8.441317 -3.652677 -1.241028 2.413799 -11.778930 0.618803 4.957321 20.420620 -11.384535 0.000000 0.000000 0.000000
10.019683 68.561162 279.295986 3.990599 -7.491490 0.323119 0.181061 -0.070754 0.095322 -0.039169 0.491551 0.147584 -16.724596 13.211996 -1.944460 0.000000 0.000000 0.000000 -8.028468 9.426184 0.273819 21.680609 2.816821 -4.643278 4.459338 -10.416684 -0.900331 -12.005634 3.598227 6.795596 0.000000 0.000000 0.000000 0.000000 0.000000 0.000000 -1.573990 9.184876 -0.696742 -2.051764 -3.980485 0.106556 -18.411098 14.155053 8.008399 -24.375529 -48.803062 -34.080412 0.000000 0.000000 0.000000 0.000000 0.000000 0.000000 -6.494692 40.249803 -0.788158 -0.053210 -13.771887 1.370010 8.630729 -9.470435 -7.247768 0.000000 0.000000 0.000000 -8.334503 -3.963259 -0.598378 2.958246 -11.843501 0.838678 4.998062 24.248129 -13.467383 0.000000 0.000000 0.000000
9.739278 69.246398 276.321654 4.058840 -7.917452 -1.613851 0.139695 -0.063872 2.055422 -0.065196 0.494362 0.146832 -16.975317 13.754536 -1.850891 0.000000 0.000000 0.000000 -9.341274 9.900855 0.562232 22.111818 0.730548 -4.128060 6.073648 -9.911746 -1.602904 -10.837121 1.851909 6.822710 0.000000 0.000000 0.000000 0.000000 0.000000 0.000000 -0.917421 9.355836 -0.834309 -2.670757 -4.312960 0.141116 -20.173493 17.578751 11.772917 -31.997403 -50.254923 -41.619490 0.000000 0.000000 0.000000 0.000000 0.000000 0.000000 -8.303421 37.435528 1.902349 0.519336 -13.203951 1.471797 8.572007 -9.258549 -8.077942 0.000000 0.000000 0.000000 -7.586213 -4.364907 1.361544 2.372727 -11.923007 0.925595 4.813977 20.380680 -14.007858 0.000000 0.000000 0.000000
9.547135 70.037558 273.878495 4.099683 -8.248713 -4.885476 0.094878 -0.032463 5.343689 -0.104310 0.469540 0.146193 -17.836575 13.902523 -1.898843 0.000000 0.000000 0.000000 -10.688842 10.744963 0.823913 22.566344 -1.468124 -3.442016 6.475137 -12.001528 -1.669067 -9.703319 1.663546 6.663358 0.000000 0.000000 0.000000 0.000000 0.000000 0.000000 -0.761118 9.413808 -0.848883 -2.842424 -4.543912 0.164877 -21.865667 20.217158 14.804780 -32.394691 -51.571936 -47.035331 0.000000 0.000000 0.000000 0.000000 0.000000 0.000000 -10.607969 33.038780 5.951332 0.958027 -10.780585 1.406918 8.891799 -11.593155 -8.959511 0.000000 0.000000 0.000000 -6.795805 -4.598414 4.668056 1.640913 -12.194952 0.928910 5.006779 16.673601 -15.532614 0.000000 0.000000 0.000000
9.467838 70.613474 271.459711 4.179859 -8.655023 -8.388782 0.022726 0.074929 8.868684 -0.156738 0.446548 0.146744 -18.746137 14.166717 -1.931084 0.000000 0.000000 0.000000 -12.124843 12.684162 1.025838 23.114236 -6.053022 -2.078853 7.149065 -10.626273 -2.507747 -9.084067 2.011997 6.593063 0.000000 0.000000 0.000000 0.000000 0.000000 0.000000 -1.150183 9.778878 -0.756872 -2.516966 -4.575361 0.161854 -22.735281 20.890398 15.677059 -32.839021 -52.594354 -50.053088 0.000000 0.000000 0.000000 0.000000 0.000000 0.000000 -12.430819 29.151864 9.920850 1.152399 -8.656018 1.238449 8.930875 -12.603276 -9.266666 0.000000 0.000000 0.000000 -6.199655 -4.161749 8.259895 0.918772 -13.105723 0.875527 5.307222 13.728042 -17.671391 0.000000 0.000000 0.000000
9.457488 71.015149 269.529739 4.222269 -8.886483 -12.627615 0.075688 0.049647 13.120438 -0.148534 0.364810 0.152790 -20.407498 15.294272 -1.901883 0.000000 0.000000 0.000000 -13.102993 15.339372 1.091465 23.478363 -10.683550 -0.539329 5.966584 -10.180116 -2.589255 -4.712243 1.232846 5.196065 0.000000 0.000000 0.000000 0.000000 0.000000 0.000000 -2.476719 9.893869 -0.453752 -1.556336 -4.496850 0.141753 -23.971324 20.191624 14.205929 -28.533107 -53.040501 -46.399182 0.000000 0.000000 0.000000 0.000000 0.000000 0.000000 -13.728940 24.965772 14.326993 0.899238 -6.045674 0.918613 8.972271 -18.428316 -8.962200 0.000000 0.000000 0.000000 -5.260224 -3.865098 12.561701 -0.523748 -13.278078 0.702573 6.043081 11.072434 -20.316498 0.000000 0.000000 0.000000
9.516305 71.234890 267.999223 4.123417 -9.373749 -17.037359 -0.057254 0.301282 17.528683 -0.204502 0.303686 0.147782 -21.708849 16.293908 -1.857899 0.000000 0.000000 0.000000 -13.476486 18.545212 1.058146 24.625573 -16.531358 1.345162 2.613875 -7.246250 -2.115367 -1.891580 0.442712 3.783687 0.000000 0.000000 0.000000 0.000000 0.000000 0.000000 -3.124898 9.594612 -0.219147 -0.974015 -4.579422 0.139884 -25.988334 20.462854 13.648082 -24.486401 -52.039870 -39.605586 0.000000 0.000000 0.000000 0.000000 0.000000 0.000000 -14.612820 21.595453 18.804740 0.508761 -3.921101 0.594006 9.126495 -21.693111 -8.617248 0.000000 0.000000 0.000000 -4.057580 -3.419321 17.015046 -2.118249 -12.179723 0.563603 6.793445 8.595619 -23.107360 0.000000 0.000000 0.000000
9.525469 71.460811 266.495790 3.981047 -9.430092 -21.539437 -0.109611 0.294499 22.017010 -0.237696 0.103423 0.146387 -22.825189 16.569429 -1.890174 0.000000 0.000000 0.000000 -12.812638 21.953704 0.717011 24.621524 -22.023704 3.356922 -0.081137 -3.985196 -1.511397 2.961951 -0.208831 1.936217 0.000000 0.000000 0.000000 0.000000 0.000000 0.000000 -3.699636 9.033299 0.001312 -0.515264 -4.591286 0.145842 -28.504866 20.219569 12.032596 -16.316930 -50.178971 -28.946627 0.000000 0.000000 0.000000 0.000000 0.000000 0.000000 -14.864653 18.074933 23.145973 0.038395 -2.094729 0.280426 9.197558 -22.738253 -8.142660 0.000000 0.000000 0.000000 -2.687446 -3.986606 21.487642 -3.365958 -10.555454 0.544687 7.577022 7.876194 -25.454376 0.000000 0.000000 0.000000
9.553295 71.662827 265.466152 3.713305 -9.896093 -24.620254 -0.170899 0.351014 25.080176 -0.257297 0.202348 0.130514 -24.326707 18.297515 -1.673598 0.000000 0.000000 0.000000 -11.034151 24.807028 0.068038 23.971786 -25.837344 4.877693 -1.349612 -1.095395 -1.215891 3.695869 -1.503319 1.625560 0.000000 0.000000 0.000000 0.000000 0.000000 0.000000 -3.727985 8.469495 0.115376 -0.328860 -4.643360 0.134807 -31.911327 19.248164 9.035987 -9.660359 -49.459746 -20.266824 0.000000 0.000000 0.000000 0.000000 0.000000 0.000000 -15.116268 16.436859 26.217953 -0.172376 -1.434376 0.092430 9.280457 -21.163600 -7.945367 0.000000 0.000000 0.000000 -1.709079 -3.504039 24.550990 -4.339819 -9.501228 0.531812 8.347137 8.470175 -27.400417 0.000000 0.000000 0.000000
9.423511 71.878729 264.505441 3.253333 -9.745832 -26.886815 -0.007929 0.118360 27.291650 -0.232460 0.276516 0.110988 -25.226991 19.303201 -1.559266 0.000000 0.000000 0.000000 -8.661132 26.988858 -0.830575 23.040284 -28.427699 6.028401 -0.816916 1.867602 -1.693944 4.150560 -2.813211 2.015163 0.000000 0.000000 0.000000 0.000000 0.000000 0.000000 -3.287325 7.765024 0.123584 -0.475362 -4.729512 0.144189 -37.337264 17.992842 4.964976 1.861848 -48.692888 -10.614825 0.000000 0.000000 0.000000 0.000000 0.000000 0.000000 -14.206223 14.691776 28.252872 -0.600961 -0.531704 -0.079366 9.534470 -21.005863 -8.193055 0.000000 0.000000 0.000000 0.085142 -4.079847 26.729399 -5.457133 -7.484445 0.640759 9.357700 10.408839 -28.489411 0.000000 0.000000 0.000000
